# xmcd
#
# Track frame offsets:
#	150
#	19007
#	35110
#	64028
#	91947
#	133165
#	169608
#	202455
#	235804
#	269705
#
# Disc length: 4432 seconds
#
# Revision: 1
# Processed by: cddbd v1.5.2PL0 Copyright (c) Steve Scherf et al.
# Submitted via: audiograbber 1.83.01
#
DISCID=94114e0a
DTITLE=Sara Noxx and Goethes Erben - Weg zurück
DYEAR=2014
DGENRE=Gruft
TTITLE0=Weg zurück (Short Version)
TTITLE1=Weg zurück (Album Version)
TTITLE2=Weg zurück (Ost+Front Remix)
TTITLE3=Weg zurück (Coloma-Küchenmeister Remix)
TTITLE4=Weg zurück (Vox Insana Remix)
TTITLE5=Weg zurück (van Adrian Remix)
TTITLE6=Weg zurück (Wort-Ton Remix)
TTITLE7=Weg zurück (Long Version)
TTITLE8=Facinxx (Neon Has Electric Hands Remix by naTW!)
TTITLE9=Weg zurück (12inch Extended Remix by baTW!)
EXTD=
EXTT0=
EXTT1=
EXTT2=
EXTT3=
EXTT4=
EXTT5=
EXTT6=
EXTT7=
EXTT8=
EXTT9=
PLAYORDER=
